<svg xmlns="http://www.w3.org/2000/svg" viewBox="0 0 1200 760" role="img" aria-label="Code Meeseeks UI preview placeholder" font-family="ui-sans-serif, -apple-system, Segoe UI, Roboto, sans-serif">
  <defs>
    <clipPath id="round"><rect x="0" y="0" width="1200" height="760" rx="12"/></clipPath>
  </defs>
  <g clip-path="url(#round)">
    <!-- app shell -->
    <rect width="1200" height="760" fill="#1e1e1e"/>

    <!-- title bar -->
    <rect width="1200" height="40" fill="#181818"/>
    <circle cx="24" cy="20" r="6" fill="#ff5f57"/>
    <circle cx="46" cy="20" r="6" fill="#febc2e"/>
    <circle cx="68" cy="20" r="6" fill="#28c840"/>
    <text x="600" y="25" text-anchor="middle" fill="#858585" font-size="13">Code Meeseeks — feat/awesome-change · #1024</text>

    <!-- sidebar: PR list -->
    <rect x="0" y="40" width="300" height="720" fill="#1f1f20"/>
    <rect x="16" y="60" width="120" height="12" rx="6" fill="#3e3e42"/>
    <g fill="#2a2d2e">
      <rect x="12" y="92" width="276" height="60" rx="6"/>
    </g>
    <rect x="12" y="92" width="3" height="60" fill="#0e639c"/>
    <rect x="28" y="106" width="180" height="10" rx="5" fill="#cccccc"/>
    <rect x="28" y="126" width="120" height="8" rx="4" fill="#6e7681"/>
    <g fill="#858585">
      <rect x="28" y="176" width="200" height="10" rx="5"/>
      <rect x="28" y="196" width="120" height="8" rx="4" opacity="0.6"/>
      <rect x="28" y="236" width="210" height="10" rx="5"/>
      <rect x="28" y="256" width="110" height="8" rx="4" opacity="0.6"/>
      <rect x="28" y="296" width="190" height="10" rx="5"/>
      <rect x="28" y="316" width="130" height="8" rx="4" opacity="0.6"/>
    </g>

    <!-- diff panes -->
    <rect x="300" y="40" width="900" height="32" fill="#252526"/>
    <rect x="316" y="49" width="140" height="12" rx="6" fill="#3e3e42"/>
    <!-- gutter numbers -->
    <rect x="300" y="72" width="40" height="688" fill="#1e1e1e"/>
    <!-- left / right split -->
    <line x1="750" y1="72" x2="750" y2="760" stroke="#3e3e42" stroke-width="1"/>
    <!-- code lines: removed (red) / added (green) / neutral -->
    <g>
      <rect x="352" y="96"  width="330" height="10" rx="5" fill="#858585"/>
      <rect x="352" y="120" width="270" height="10" rx="5" fill="#858585"/>
      <rect x="340" y="144" width="410" height="20"          fill="#c74e39" opacity="0.22"/>
      <rect x="352" y="149" width="300" height="10" rx="5" fill="#f48771"/>
      <rect x="352" y="180" width="240" height="10" rx="5" fill="#858585"/>
      <rect x="352" y="204" width="360" height="10" rx="5" fill="#858585"/>
      <rect x="762" y="96"  width="330" height="10" rx="5" fill="#858585"/>
      <rect x="762" y="120" width="270" height="10" rx="5" fill="#858585"/>
      <rect x="760" y="144" width="430" height="20"          fill="#73c991" opacity="0.20"/>
      <rect x="772" y="149" width="320" height="10" rx="5" fill="#73c991"/>
      <rect x="762" y="180" width="240" height="10" rx="5" fill="#858585"/>
      <rect x="762" y="204" width="360" height="10" rx="5" fill="#858585"/>
    </g>

    <!-- inline review comment card -->
    <rect x="360" y="250" width="760" height="120" rx="8" fill="#252526" stroke="#3e3e42"/>
    <circle cx="392" cy="284" r="14" fill="#0e639c"/>
    <text x="392" y="289" text-anchor="middle" fill="#ffffff" font-size="13" font-weight="600">M</text>
    <rect x="420" y="270" width="160" height="10" rx="5" fill="#cccccc"/>
    <rect x="420" y="296" width="660" height="9" rx="4.5" fill="#858585"/>
    <rect x="420" y="316" width="600" height="9" rx="4.5" fill="#858585"/>
    <rect x="420" y="336" width="120" height="22" rx="6" fill="#0e639c"/>
    <rect x="552" y="336" width="120" height="22" rx="6" fill="#2d2d30" stroke="#3e3e42"/>

    <!-- border -->
    <rect x="0.5" y="0.5" width="1199" height="759" rx="12" fill="none" stroke="#3e3e42"/>
  </g>
</svg>
