<svg xmlns="http://www.w3.org/2000/svg" viewBox="0 0 1200 760" role="img" aria-label="Code Meeseeks UI preview placeholder" font-family="ui-sans-serif, -apple-system, Segoe UI, Roboto, sans-serif">
  <defs>
    <clipPath id="round"><rect x="0" y="0" width="1200" height="760" rx="12"/></clipPath>
  </defs>
  <g clip-path="url(#round)">
    <!-- app shell -->
    <rect width="1200" height="760" fill="#ffffff"/>

    <!-- title bar -->
    <rect width="1200" height="40" fill="#e4e4e4"/>
    <circle cx="24" cy="20" r="6" fill="#ff5f57"/>
    <circle cx="46" cy="20" r="6" fill="#febc2e"/>
    <circle cx="68" cy="20" r="6" fill="#28c840"/>
    <text x="600" y="25" text-anchor="middle" fill="#616161" font-size="13">Code Meeseeks — feat/awesome-change · #1024</text>

    <!-- sidebar: PR list -->
    <rect x="0" y="40" width="300" height="720" fill="#f3f3f3"/>
    <rect x="16" y="60" width="120" height="12" rx="6" fill="#d0d0d0"/>
    <g fill="#e4eefb">
      <rect x="12" y="92" width="276" height="60" rx="6"/>
    </g>
    <rect x="12" y="92" width="3" height="60" fill="#005fb8"/>
    <rect x="28" y="106" width="180" height="10" rx="5" fill="#333333"/>
    <rect x="28" y="126" width="120" height="8" rx="4" fill="#8a8a8a"/>
    <g fill="#6e6e6e">
      <rect x="28" y="176" width="200" height="10" rx="5"/>
      <rect x="28" y="196" width="120" height="8" rx="4" opacity="0.6"/>
      <rect x="28" y="236" width="210" height="10" rx="5"/>
      <rect x="28" y="256" width="110" height="8" rx="4" opacity="0.6"/>
      <rect x="28" y="296" width="190" height="10" rx="5"/>
      <rect x="28" y="316" width="130" height="8" rx="4" opacity="0.6"/>
    </g>

    <!-- diff panes -->
    <rect x="300" y="40" width="900" height="32" fill="#ececec"/>
    <rect x="316" y="49" width="140" height="12" rx="6" fill="#d0d0d0"/>
    <!-- gutter numbers -->
    <rect x="300" y="72" width="40" height="688" fill="#ffffff"/>
    <!-- left / right split -->
    <line x1="750" y1="72" x2="750" y2="760" stroke="#e0e0e0" stroke-width="1"/>
    <!-- code lines: removed (red) / added (green) / neutral -->
    <g>
      <rect x="352" y="96"  width="330" height="10" rx="5" fill="#9a9a9a"/>
      <rect x="352" y="120" width="270" height="10" rx="5" fill="#9a9a9a"/>
      <rect x="340" y="144" width="410" height="20"          fill="#e5534b" opacity="0.16"/>
      <rect x="352" y="149" width="300" height="10" rx="5" fill="#b31d28"/>
      <rect x="352" y="180" width="240" height="10" rx="5" fill="#9a9a9a"/>
      <rect x="352" y="204" width="360" height="10" rx="5" fill="#9a9a9a"/>
      <rect x="762" y="96"  width="330" height="10" rx="5" fill="#9a9a9a"/>
      <rect x="762" y="120" width="270" height="10" rx="5" fill="#9a9a9a"/>
      <rect x="760" y="144" width="430" height="20"          fill="#2da44e" opacity="0.16"/>
      <rect x="772" y="149" width="320" height="10" rx="5" fill="#1a7f37"/>
      <rect x="762" y="180" width="240" height="10" rx="5" fill="#9a9a9a"/>
      <rect x="762" y="204" width="360" height="10" rx="5" fill="#9a9a9a"/>
    </g>

    <!-- inline review comment card -->
    <rect x="360" y="250" width="760" height="120" rx="8" fill="#f8f8f8" stroke="#e0e0e0"/>
    <circle cx="392" cy="284" r="14" fill="#005fb8"/>
    <text x="392" y="289" text-anchor="middle" fill="#ffffff" font-size="13" font-weight="600">M</text>
    <rect x="420" y="270" width="160" height="10" rx="5" fill="#333333"/>
    <rect x="420" y="296" width="660" height="9" rx="4.5" fill="#8a8a8a"/>
    <rect x="420" y="316" width="600" height="9" rx="4.5" fill="#8a8a8a"/>
    <rect x="420" y="336" width="120" height="22" rx="6" fill="#005fb8"/>
    <rect x="552" y="336" width="120" height="22" rx="6" fill="#eaeaea" stroke="#d0d0d0"/>

    <!-- border -->
    <rect x="0.5" y="0.5" width="1199" height="759" rx="12" fill="none" stroke="#e0e0e0"/>
  </g>
</svg>
